<svg width="104" height="104" viewBox="0 0 104 104" fill="none" xmlns="http://www.w3.org/2000/svg">
<path d="M63.6078 49.5439L61.6078 47.7239L53.9378 40.7639C53.3877 40.272 52.6757 40 51.9378 40C51.1998 40 50.4878 40.272 49.9378 40.7639L42.2878 47.7639L40.2878 49.5839C40.1531 49.7206 40.0606 49.8931 40.0212 50.0809C39.9819 50.2687 39.9974 50.4638 40.0659 50.643C40.1345 50.8222 40.2531 50.9779 40.4077 51.0916C40.5623 51.2052 40.7463 51.272 40.9378 51.2839C41.1911 51.2725 41.4305 51.1653 41.6078 50.9839L41.9378 50.6839V60.9839C41.9378 61.7796 42.2538 62.5426 42.8164 63.1053C43.3791 63.6679 44.1421 63.9839 44.9378 63.9839H58.9378C59.7334 63.9839 60.4965 63.6679 61.0591 63.1053C61.6217 62.5426 61.9378 61.7796 61.9378 60.9839V50.7239L62.2678 51.0239C62.4512 51.1906 62.6899 51.2833 62.9378 51.2839C63.1394 51.2834 63.3361 51.2219 63.5022 51.1076C63.6683 50.9933 63.7959 50.8314 63.8684 50.6433C63.9408 50.4551 63.9547 50.2495 63.9082 50.0533C63.8617 49.8571 63.757 49.6795 63.6078 49.5439Z" fill="white"/>
</svg>
