<svg width="24" height="24" viewBox="0 0 24 24" fill="none" xmlns="http://www.w3.org/2000/svg">
<path d="M23.9543 11H12.9543V0C15.7955 0.228368 18.4627 1.46063 20.4782 3.47614C22.4937 5.49166 23.726 8.1588 23.9543 11V11Z" fill="white"/>
<path d="M23.9544 13C23.7553 15.2756 22.9109 17.4471 21.5203 19.2594C20.1298 21.0716 18.2509 22.4493 16.1044 23.2306C13.9578 24.0119 11.6329 24.1643 9.40278 23.6699C7.17265 23.1755 5.12995 22.0549 3.51472 20.4396C1.89949 18.8244 0.778836 16.7817 0.284438 14.5516C-0.20996 12.3214 -0.0575603 9.99652 0.723729 7.85001C1.50502 5.70349 2.88274 3.82457 4.695 2.43401C6.50726 1.04346 8.67877 0.199045 10.9544 0V12C10.9544 12.2652 11.0597 12.5196 11.2473 12.7071C11.4348 12.8946 11.6891 13 11.9544 13H23.9544Z" fill="white"/>
</svg>
