<svg width="28" height="22" viewBox="0 0 28 22" fill="none" xmlns="http://www.w3.org/2000/svg">
<path d="M18.0007 12.7946V13.7946C18.0007 14.4512 17.8714 15.1014 17.6201 15.708C17.3688 16.3146 17.0005 16.8658 16.5362 17.3301C16.0719 17.7944 15.5207 18.1627 14.9141 18.414C14.3075 18.6653 13.6573 18.7946 13.0007 18.7946H9.74068C9.72525 19.3415 9.56058 19.8737 9.26447 20.3338C8.96835 20.7938 8.55208 21.1641 8.06068 21.4046C7.65084 21.6094 7.19882 21.7155 6.74068 21.7146C6.06295 21.7186 5.40383 21.493 4.87068 21.0746L1.16068 18.1646C0.799347 17.8842 0.506919 17.5248 0.30575 17.1141C0.104582 16.7033 0 16.252 0 15.7946C0 15.3372 0.104582 14.8859 0.30575 14.4751C0.506919 14.0644 0.799347 13.705 1.16068 13.4246L4.87068 10.5146C5.31768 10.1578 5.85733 9.9363 6.42605 9.87606C6.99478 9.81583 7.56887 9.9194 8.08068 10.1746C8.76221 10.5006 9.28708 11.083 9.54068 11.7946H16.9707C17.1045 11.7906 17.2378 11.8135 17.3626 11.8619C17.4874 11.9104 17.6012 11.9834 17.6973 12.0767C17.7933 12.1699 17.8697 12.2815 17.9218 12.4049C17.9739 12.5282 18.0007 12.6607 18.0007 12.7946Z" fill="white"/>
<path d="M27.7407 5.9347C27.7408 6.39203 27.6363 6.84332 27.4353 7.25408C27.2342 7.66484 26.9419 8.02421 26.5807 8.3047L22.8707 11.2147C22.3301 11.6348 21.6653 11.8634 20.9807 11.8647C20.5226 11.8656 20.0706 11.7595 19.6607 11.5547C18.9792 11.2287 18.4543 10.6463 18.2007 9.9347H10.7407C10.4755 9.9347 10.2212 9.82934 10.0336 9.64181C9.84608 9.45427 9.74072 9.19992 9.74072 8.9347V7.9347C9.74072 6.60862 10.2675 5.33685 11.2052 4.39917C12.1429 3.46148 13.4146 2.9347 14.7407 2.9347H18.0007C18.0129 2.37565 18.1811 1.83113 18.4863 1.36258C18.7915 0.894037 19.2216 0.520119 19.728 0.283022C20.2344 0.0459261 20.797 -0.0449103 21.3524 0.0207643C21.9077 0.0864389 22.4336 0.30601 22.8707 0.6547L26.5807 3.5647C26.9419 3.84519 27.2342 4.20456 27.4353 4.61532C27.6363 5.02608 27.7408 5.47737 27.7407 5.9347V5.9347Z" fill="white"/>
</svg>
