<svg width="20" height="24" viewBox="0 0 20 24" fill="none" xmlns="http://www.w3.org/2000/svg">
<path d="M10 12C13.3137 12 16 9.31371 16 6C16 2.68629 13.3137 0 10 0C6.68629 0 4 2.68629 4 6C4 9.31371 6.68629 12 10 12Z" fill="white"/>
<path d="M13 13.9299H7C5.14348 13.9299 3.36301 14.6674 2.05025 15.9802C0.737498 17.2929 0 19.0734 0 20.9299C0 21.7256 0.316071 22.4886 0.87868 23.0513C1.44129 23.6139 2.20435 23.9299 3 23.9299H17C17.7956 23.9299 18.5587 23.6139 19.1213 23.0513C19.6839 22.4886 20 21.7256 20 20.9299C20 19.0734 19.2625 17.2929 17.9497 15.9802C16.637 14.6674 14.8565 13.9299 13 13.9299Z" fill="white"/>
</svg>
